<svg xmlns="http://www.w3.org/2000/svg" width="588.994" height="513.02" viewBox="0 0 588.994 513.02"><g transform="translate(0 0)"><path d="M705.79,346.57a245.288,245.288,0,0,1-68.453,170.284q-3.978,4.165-8.171,8.13-6.388,6.077-13.206,11.682a245.1,245.1,0,0,1-150.673,55.877q-2.753.062-5.526.062c-43.925,0-99.172-23.462-149.309-55.94q-6.222-4.03-12.333-8.248-2.857-1.953-5.685-3.961A505.827,505.827,0,0,1,237.5,479.584a356.01,356.01,0,0,1-31.682-33.877c-38.524-47.519-47.02-90.336,7.9-99.138q9.754-1.558,18.933-3.331,13.3-2.555,25.449-5.519,16.371-3.978,30.761-8.628,4.841-1.558,9.46-3.179c45.525-15.99,75.994-36.841,96.735-59.464q5.277-5.744,9.73-11.627a163.459,163.459,0,0,0,12.347-18.78,176.516,176.516,0,0,0,12.749-28.427l.187-.54c16.5-47.6,11.482-91.756,29.687-106.533,77.823-63.176,174.709,26.793,220.186,132.89q3.438,8.019,6.468,16.135,1.361,3.625,2.625,7.264,3.324,9.484,6.032,19.016,1.039,3.636,1.981,7.264c.672,2.611,1.316,5.214,1.911,7.818A247.994,247.994,0,0,1,705.79,346.57Z" transform="translate(-174.731 -79.585)" fill="#f2f2f2"/><path d="M520.077,775.817q-2.753.062-5.526.062c-43.925,0-99.172-23.462-149.309-55.94q-6.222-4.03-12.333-8.248l3.573-21.744,108.175-14.362L518.949,717.1Z" transform="translate(-229.522 -262.858)" fill="#393f41"/><path d="M594.184,259.635H578.769a1.8,1.8,0,0,0-1.8,1.8v15.422a1.8,1.8,0,0,0,1.8,1.794h15.415a1.8,1.8,0,0,0,1.8-1.794V261.435A1.806,1.806,0,0,0,594.184,259.635Z" transform="translate(-298.421 -134.951)" fill="#fff"/><path d="M594.184,297.585H578.769a1.8,1.8,0,0,0-1.8,1.8v15.422a1.8,1.8,0,0,0,1.8,1.794h15.415a1.8,1.8,0,0,0,1.8-1.794V299.385A1.806,1.806,0,0,0,594.184,297.585Z" transform="translate(-298.421 -146.621)" fill="#393f41" opacity="0.9"/><path d="M594.184,335.535H578.769a1.8,1.8,0,0,0-1.8,1.8v15.415a1.8,1.8,0,0,0,1.8,1.8h15.415a1.8,1.8,0,0,0,1.8-1.8V337.336A1.806,1.806,0,0,0,594.184,335.535Z" transform="translate(-298.421 -158.291)" fill="#e6e6e6"/><path d="M595.957,374.967a1.812,1.812,0,0,0-1.773-1.482H578.769a1.8,1.8,0,0,0-1.8,1.8V390.7a1.8,1.8,0,0,0,1.8,1.8h15.415a1.8,1.8,0,0,0,1.8-1.8V375.285A1.592,1.592,0,0,0,595.957,374.967Z" transform="translate(-298.421 -169.961)" fill="#e6e6e6"/><path d="M594.884,411.573a1.824,1.824,0,0,0-.7-.139H578.769a1.8,1.8,0,0,0-1.8,1.8V428.65a1.792,1.792,0,0,0,1.8,1.8h15.415a1.8,1.8,0,0,0,1.8-1.8V413.235a1.812,1.812,0,0,0-1.1-1.662Z" transform="translate(-298.421 -181.631)" fill="#e6e6e6"/><path d="M640.944,259.635H625.529a1.8,1.8,0,0,0-1.8,1.8v15.422a1.8,1.8,0,0,0,1.8,1.794h15.415a1.8,1.8,0,0,0,1.8-1.794V261.435a1.806,1.806,0,0,0-1.8-1.8Z" transform="translate(-312.8 -134.951)" fill="#393f41" opacity="0.9"/><path d="M640.944,297.585H625.529a1.8,1.8,0,0,0-1.8,1.8v15.422a1.8,1.8,0,0,0,1.8,1.794h15.415a1.8,1.8,0,0,0,1.8-1.794V299.385a1.806,1.806,0,0,0-1.8-1.8Z" transform="translate(-312.8 -146.621)" fill="#8dcbcb"/><path d="M640.944,335.535H625.529a1.8,1.8,0,0,0-1.8,1.8v15.415a1.8,1.8,0,0,0,1.8,1.8h15.415a1.8,1.8,0,0,0,1.8-1.8V337.336A1.806,1.806,0,0,0,640.944,335.535Z" transform="translate(-312.8 -158.291)" fill="#8dcbcb"/><path d="M640.944,373.485H625.53a1.8,1.8,0,0,0-1.7,1.233,1.715,1.715,0,0,0-.1.568V390.7a1.8,1.8,0,0,0,1.8,1.8h15.415a1.8,1.8,0,0,0,1.8-1.8V375.286a1.806,1.806,0,0,0-1.8-1.8Z" transform="translate(-312.8 -169.961)" fill="#8dcbcb"/><path d="M640.944,411.435H625.529a1.8,1.8,0,0,0-1.8,1.8V428.65a1.8,1.8,0,0,0,1.8,1.8h15.415a1.8,1.8,0,0,0,1.8-1.8V413.235a1.8,1.8,0,0,0-1.8-1.8Z" transform="translate(-312.8 -181.631)" fill="#e6e6e6"/><path d="M687.7,259.635H672.29a1.8,1.8,0,0,0-1.8,1.8v15.422a1.8,1.8,0,0,0,1.8,1.794H687.7a1.8,1.8,0,0,0,1.8-1.794V261.435a1.806,1.806,0,0,0-1.8-1.8Z" transform="translate(-327.179 -134.951)" fill="#8dcbcb"/><path d="M687.7,297.585H672.289a1.8,1.8,0,0,0-1.8,1.8v15.422a1.8,1.8,0,0,0,1.8,1.794H687.7a1.8,1.8,0,0,0,1.8-1.794V299.385A1.806,1.806,0,0,0,687.7,297.585Z" transform="translate(-327.179 -146.621)" fill="#8dcbcb"/><path d="M687.7,335.535H672.29a1.8,1.8,0,0,0-1.8,1.8v15.415a1.8,1.8,0,0,0,1.8,1.8H687.7a1.8,1.8,0,0,0,1.8-1.8V337.336A1.806,1.806,0,0,0,687.7,335.535Z" transform="translate(-327.179 -158.291)" fill="#393f41" opacity="0.9"/><path d="M687.7,373.485H672.289a1.8,1.8,0,0,0-1.8,1.8V390.7a1.8,1.8,0,0,0,1.8,1.8H687.7a1.8,1.8,0,0,0,1.8-1.8V375.286A1.806,1.806,0,0,0,687.7,373.485Z" transform="translate(-327.179 -169.961)" fill="#8dcbcb"/><path d="M687.7,411.435H672.29a1.8,1.8,0,0,0-1.8,1.8V428.65a1.8,1.8,0,0,0,1.8,1.8H687.7a1.8,1.8,0,0,0,1.8-1.8V413.235a1.8,1.8,0,0,0-1.8-1.8Z" transform="translate(-327.179 -181.631)" fill="#8dcbcb"/><path d="M734.464,259.635H719.049a1.8,1.8,0,0,0-1.8,1.8v15.422a1.8,1.8,0,0,0,1.8,1.794h15.415a1.8,1.8,0,0,0,1.8-1.794V261.435A1.806,1.806,0,0,0,734.464,259.635Z" transform="translate(-341.558 -134.951)" fill="#8dcbcb"/><path d="M734.464,297.585H719.05a1.8,1.8,0,0,0-1.8,1.8v15.422a1.8,1.8,0,0,0,1.8,1.794h15.415a1.8,1.8,0,0,0,1.8-1.794V299.385A1.806,1.806,0,0,0,734.464,297.585Z" transform="translate(-341.558 -146.621)" fill="#fff"/><path d="M734.464,335.535H719.05a1.8,1.8,0,0,0-1.8,1.8v15.415a1.8,1.8,0,0,0,1.8,1.8h15.415a1.8,1.8,0,0,0,1.8-1.8V337.336A1.806,1.806,0,0,0,734.464,335.535Z" transform="translate(-341.558 -158.291)" fill="#fff"/><path d="M734.464,373.485H719.05a1.8,1.8,0,0,0-1.8,1.8V390.7a1.8,1.8,0,0,0,1.8,1.8h15.415a1.8,1.8,0,0,0,1.8-1.8V375.286A1.806,1.806,0,0,0,734.464,373.485Z" transform="translate(-341.558 -169.961)" fill="#393f41" opacity="0.9"/><path d="M734.464,411.435H719.05a1.8,1.8,0,0,0-1.8,1.8V428.65a1.8,1.8,0,0,0,1.8,1.8h15.415a1.8,1.8,0,0,0,1.8-1.8V413.235a1.8,1.8,0,0,0-1.8-1.8Z" transform="translate(-341.558 -181.631)" fill="#8dcbcb"/><path d="M781.224,259.635H765.8a1.8,1.8,0,0,0-1.794,1.8v15.422a1.794,1.794,0,0,0,1.793,1.794h15.422a1.8,1.8,0,0,0,1.8-1.794V261.435a1.806,1.806,0,0,0-1.8-1.8Z" transform="translate(-355.937 -134.951)" fill="#fff"/><path d="M781.224,297.585H765.8a1.8,1.8,0,0,0-1.794,1.8v15.422A1.794,1.794,0,0,0,765.8,316.6h15.422a1.8,1.8,0,0,0,1.8-1.794V299.385A1.806,1.806,0,0,0,781.224,297.585Z" transform="translate(-355.937 -146.621)" fill="#fff"/><path d="M781.224,335.535H765.8a1.8,1.8,0,0,0-1.793,1.8v15.415a1.8,1.8,0,0,0,1.793,1.8h15.422a1.8,1.8,0,0,0,1.8-1.8V337.336A1.806,1.806,0,0,0,781.224,335.535Z" transform="translate(-355.937 -158.291)" fill="#fff"/><path d="M781.224,373.485H765.8a1.8,1.8,0,0,0-1.793,1.8V390.7a1.8,1.8,0,0,0,1.794,1.8h15.422a1.8,1.8,0,0,0,1.8-1.8V375.286a1.806,1.806,0,0,0-1.8-1.8Z" transform="translate(-355.937 -169.961)" fill="#8dcbcb"/><path d="M781.224,411.435H765.8a1.8,1.8,0,0,0-1.793,1.8V428.65a1.8,1.8,0,0,0,1.793,1.8h15.422a1.8,1.8,0,0,0,1.8-1.8V413.235a1.8,1.8,0,0,0-1.8-1.8Z" transform="translate(-355.937 -181.631)" fill="#393f41" opacity="0.9"/><path d="M827.984,259.635H812.563a1.8,1.8,0,0,0-1.794,1.8v15.422a1.794,1.794,0,0,0,1.793,1.794h15.422a1.8,1.8,0,0,0,1.8-1.794V261.435A1.806,1.806,0,0,0,827.984,259.635Z" transform="translate(-370.316 -134.951)" fill="#fff"/><path d="M827.984,297.585H812.563a1.8,1.8,0,0,0-1.794,1.8v15.422a1.794,1.794,0,0,0,1.793,1.794h15.422a1.8,1.8,0,0,0,1.8-1.794V299.385A1.806,1.806,0,0,0,827.984,297.585Z" transform="translate(-370.316 -146.621)" fill="#fff"/><path d="M827.985,335.535H812.563a1.8,1.8,0,0,0-1.794,1.8v15.415a1.8,1.8,0,0,0,1.794,1.8h15.422a1.8,1.8,0,0,0,1.8-1.8V337.336a1.806,1.806,0,0,0-1.8-1.8Z" transform="translate(-370.316 -158.291)" fill="#8dcbcb"/><path d="M827.985,373.485H812.563a1.8,1.8,0,0,0-1.794,1.8V390.7a1.8,1.8,0,0,0,1.794,1.8h15.422a1.8,1.8,0,0,0,1.8-1.8V375.286a1.806,1.806,0,0,0-1.8-1.8Z" transform="translate(-370.316 -169.961)" fill="#393f41" opacity="0.9"/><path d="M827.985,411.435H812.563a1.8,1.8,0,0,0-1.794,1.8V428.65a1.8,1.8,0,0,0,1.794,1.8h15.422a1.8,1.8,0,0,0,1.8-1.8V413.235a1.8,1.8,0,0,0-1.8-1.8Z" transform="translate(-370.316 -181.631)" fill="#fff"/><path d="M874.744,259.635H859.322a1.8,1.8,0,0,0-1.794,1.8v15.422a1.794,1.794,0,0,0,1.793,1.794h15.422a1.8,1.8,0,0,0,1.8-1.794V261.435A1.806,1.806,0,0,0,874.744,259.635Z" transform="translate(-384.695 -134.951)" fill="#8dcbcb"/><path d="M874.744,297.585H859.322a1.8,1.8,0,0,0-1.794,1.8v15.422a1.794,1.794,0,0,0,1.793,1.794h15.422a1.8,1.8,0,0,0,1.8-1.794V299.385A1.806,1.806,0,0,0,874.744,297.585Z" transform="translate(-384.695 -146.621)" fill="#8dcbcb"/><path d="M874.744,335.535H859.323a1.8,1.8,0,0,0-1.793,1.8v15.415a1.8,1.8,0,0,0,1.794,1.8h15.422a1.8,1.8,0,0,0,1.8-1.8V337.336A1.806,1.806,0,0,0,874.744,335.535Z" transform="translate(-384.695 -158.291)" fill="#393f41" opacity="0.9"/><path d="M874.744,373.485H859.323a1.8,1.8,0,0,0-1.794,1.8V390.7a1.8,1.8,0,0,0,1.794,1.8h15.422a1.8,1.8,0,0,0,1.8-1.8V375.286a1.806,1.806,0,0,0-1.8-1.8Z" transform="translate(-384.695 -169.961)" fill="#fff"/><path d="M874.744,411.435H859.323a1.8,1.8,0,0,0-1.794,1.8V428.65a1.8,1.8,0,0,0,1.794,1.8h15.422a1.8,1.8,0,0,0,1.8-1.8V413.235a1.8,1.8,0,0,0-1.8-1.8Z" transform="translate(-384.695 -181.631)" fill="#8dcbcb"/><path d="M921.5,259.635H906.083a1.8,1.8,0,0,0-1.794,1.8v15.422a1.794,1.794,0,0,0,1.793,1.794H921.5a1.8,1.8,0,0,0,1.8-1.794V261.435A1.806,1.806,0,0,0,921.5,259.635Z" transform="translate(-399.074 -134.951)" fill="#8dcbcb"/><path d="M921.5,297.585H906.083a1.8,1.8,0,0,0-1.794,1.8v15.422a1.794,1.794,0,0,0,1.793,1.794H921.5a1.8,1.8,0,0,0,1.8-1.794V299.385A1.806,1.806,0,0,0,921.5,297.585Z" transform="translate(-399.074 -146.621)" fill="#8dcbcb"/><path d="M921.5,335.535H906.083a1.8,1.8,0,0,0-1.793,1.8v15.415a1.8,1.8,0,0,0,1.794,1.8H921.5a1.8,1.8,0,0,0,1.8-1.8V337.336A1.806,1.806,0,0,0,921.5,335.535Z" transform="translate(-399.074 -158.291)" fill="#393f41" opacity="0.9"/><path d="M921.5,373.485H906.083a1.8,1.8,0,0,0-1.794,1.8V390.7a1.8,1.8,0,0,0,1.794,1.8H921.5a1.8,1.8,0,0,0,1.8-1.8V375.286A1.806,1.806,0,0,0,921.5,373.485Z" transform="translate(-399.074 -169.961)" fill="#8dcbcb"/><path d="M921.5,411.435H906.083a1.8,1.8,0,0,0-1.794,1.8V428.65a1.8,1.8,0,0,0,1.794,1.8H921.5a1.8,1.8,0,0,0,1.8-1.8V413.235a1.8,1.8,0,0,0-1.8-1.8Z" transform="translate(-399.074 -181.631)" fill="#8dcbcb"/><path d="M968.264,259.635H952.843a1.8,1.8,0,0,0-1.794,1.8v15.422a1.794,1.794,0,0,0,1.793,1.794h15.422a1.8,1.8,0,0,0,1.8-1.794V261.435A1.806,1.806,0,0,0,968.264,259.635Z" transform="translate(-413.453 -134.951)" fill="#393f41" opacity="0.9"/><path d="M968.264,297.585H952.843a1.8,1.8,0,0,0-1.794,1.8v15.422a1.794,1.794,0,0,0,1.793,1.794h15.422a1.8,1.8,0,0,0,1.8-1.794V299.385A1.806,1.806,0,0,0,968.264,297.585Z" transform="translate(-413.453 -146.621)" fill="#8dcbcb"/><path d="M968.264,335.535H952.843a1.8,1.8,0,0,0-1.793,1.8v15.415a1.8,1.8,0,0,0,1.794,1.8h15.422a1.8,1.8,0,0,0,1.8-1.8V337.336A1.806,1.806,0,0,0,968.264,335.535Z" transform="translate(-413.453 -158.291)" fill="#8dcbcb"/><path d="M968.264,373.485H952.843a1.8,1.8,0,0,0-1.794,1.8V390.7a1.8,1.8,0,0,0,1.794,1.8h15.422a1.8,1.8,0,0,0,1.8-1.8V375.286A1.806,1.806,0,0,0,968.264,373.485Z" transform="translate(-413.453 -169.961)" fill="#8dcbcb"/><path d="M968.264,411.435H952.843a1.8,1.8,0,0,0-1.794,1.8V428.65a1.8,1.8,0,0,0,1.794,1.8h15.422a1.8,1.8,0,0,0,1.8-1.8V413.235a1.8,1.8,0,0,0-1.8-1.8Z" transform="translate(-413.453 -181.631)" fill="#393f41" opacity="0.9"/><path d="M1015.025,259.635H999.6a1.8,1.8,0,0,0-1.794,1.8v15.422a1.794,1.794,0,0,0,1.793,1.794h15.422a1.8,1.8,0,0,0,1.8-1.794V261.435A1.806,1.806,0,0,0,1015.025,259.635Z" transform="translate(-427.832 -134.951)" fill="#393f41" opacity="0.9"/><path d="M1015.025,297.585H999.6a1.8,1.8,0,0,0-1.794,1.8v15.422A1.794,1.794,0,0,0,999.6,316.6h15.422a1.8,1.8,0,0,0,1.8-1.794V299.385a1.806,1.806,0,0,0-1.8-1.8Z" transform="translate(-427.832 -146.621)" fill="#393f41" opacity="0.9"/><path d="M1015.025,335.535H999.6a1.8,1.8,0,0,0-1.794,1.8v15.415a1.8,1.8,0,0,0,1.794,1.8h15.422a1.8,1.8,0,0,0,1.8-1.8V337.336A1.806,1.806,0,0,0,1015.025,335.535Z" transform="translate(-427.832 -158.291)" fill="#8dcbcb"/><path d="M1015.025,373.485H999.6a1.8,1.8,0,0,0-1.794,1.8V390.7a1.8,1.8,0,0,0,1.794,1.8h15.422a1.8,1.8,0,0,0,1.8-1.8V375.286a1.806,1.806,0,0,0-1.8-1.8Z" transform="translate(-427.832 -169.961)" fill="#393f41" opacity="0.9"/><path d="M1015.025,411.435H999.6a1.8,1.8,0,0,0-1.794,1.8V428.65a1.8,1.8,0,0,0,1.794,1.8h15.422a1.8,1.8,0,0,0,1.8-1.8V413.235a1.8,1.8,0,0,0-1.8-1.8Z" transform="translate(-427.832 -181.631)" fill="#393f41" opacity="0.9"/><path d="M335.9,660.029h-.429l.367-.048Z" transform="translate(-103.16 -202.948)" fill="#2f2e41"/><circle cx="47.313" cy="47.313" r="47.313" transform="translate(148.535 75.074)" fill="#ffb6b6"/><path d="M474.147,190.055s12.374-23.656-14.85-25.807c0,0-23.209-21.053-46.865-3.849,0,0-12.9,0-19.959,14.6,0,0-10.148-3.849-12.379,6.452,0,0-7.426,21.506,0,40.861s9.893,21.506,9.893,21.506-12.2-40.579,17.5-42.73,62.939-20.712,65.414,2.944,6.2,29.485,6.2,29.485S502.61,199.732,474.147,190.055Z" transform="translate(-236.866 -102.356)" fill="#212121"/><path d="M543.181,401.42l-.152.8-1.711,9.03L529.5,473.716l-.7,3.677-1.468,7.777-2.008,10.609-4.453,23.51-1.274,6.738-.478,2.528-.166.886-1.323,6.974-.4,2.105L514,562.432l-2.819,20.837,9.432,9.432-5.623,5.623L511.3,619.466l.007.048H360.667q-9.141-5.921-18.019-12.209l1.24-9.279s4.266-16.571,2.472-18.552-5.706-5.519-5.706-5.519l4.938-11.523.686-1.6-1.15-23.843-.028-.575-.381-7.86-.049-1.011-.076-1.517-1.461-30.248-.028-.5-.443-9.169-.416-8.718-.18-3.677-1.78-36.792-1.2-24.985-1.053-21.751,4.231-1.433,45.255-15.38L406.26,349l39.015.291,19.1.145L496.243,379l7.25,3.462.055.028,5.2,2.486,13.185,6.295,13.94,6.662,7.153,3.414Z" transform="translate(-224.946 -162.433)" fill="#cacaca"/><path d="M398.568,612.7a20.973,20.973,0,0,1-28.16-15.533L296.617,586.7l25.652-29.017,66.141,14.39A21.086,21.086,0,0,1,398.568,612.7Z" transform="translate(-212.212 -226.604)" fill="#ffb6b6"/><path d="M346.5,508.362a9.364,9.364,0,0,0-5.464-3.372l-30.276-6.295-3.109-.644a13.111,13.111,0,0,1-8.677-6.281,13.268,13.268,0,0,1-1.7-5.471,13.085,13.085,0,0,1,.616-5.18l10.491-31.612,6.807-20.512a28.942,28.942,0,0,0,1.447-7.652,30.018,30.018,0,0,0-6.281-20.006,29.565,29.565,0,0,0-33.939-9.446c-.173.062-.353.132-.526.2a29.489,29.489,0,0,0-17.527,19.674l-7.4,26.9-15.256,55.462a40,40,0,0,0,33.9,50.33l43.606,5.111L333.4,551.94a9.346,9.346,0,0,0,10.277-7.431,3.4,3.4,0,0,0,.076-.381l.485-2.992,4.107-25.193.042-.256a9.331,9.331,0,0,0-1.891-7.326Z" transform="translate(-193.044 -175.015)" fill="#cacaca"/><path d="M504.408,609.337A20.973,20.973,0,0,0,530.1,589.989l71.578-20.77-29.487-25.109-63.451,23.574a21.086,21.086,0,0,0-4.327,41.655Z" transform="translate(-271.049 -222.429)" fill="#ffb6b6"/><path d="M655.111,470.538l-34.043-78.349A29.651,29.651,0,0,0,607.031,377.4a30.024,30.024,0,0,0-6.08-2.216c-.326-.083-.651-.159-.976-.222a29.176,29.176,0,0,0-13.49.249,29.648,29.648,0,0,0-18.933,15.048.689.689,0,0,0-.055.1,29.847,29.847,0,0,0-.256,26.9l.423.845,24.057,48.315a13.089,13.089,0,0,1-7.271,18.136l-1.69.609-30.387,10.976a9.347,9.347,0,0,0-5.769,11.627l.076.242,8.518,27.257c.042.125.083.249.132.374a4.888,4.888,0,0,0,.277.686,9.336,9.336,0,0,0,10.948,5.214l16.4-4.328,3.345-.886,42.346-11.184a40,40,0,0,0,26.467-54.61Z" transform="translate(-288.949 -170.21)" fill="#cacaca"/><path d="M219.629,608.285a356.017,356.017,0,0,0,31.682,33.877H564.3a11.389,11.389,0,0,1,11.371,11.378l.45,79.311a246.129,246.129,0,0,0,53.648-33.607q6.814-5.6,13.206-11.682,4.186-3.968,8.171-8.13A246.265,246.265,0,0,0,698.8,608.285Z" transform="translate(-188.537 -242.163)" fill="#393f41"/><path d="M809.545,711.025q-3.978,4.165-8.171,8.13H734.749v-8.13Z" transform="translate(-346.94 -273.756)" fill="#fff"/><path d="M529.365,334.643a3.835,3.835,0,0,0-3.372-2.008H298.965a3.847,3.847,0,0,0-3.836,3.843V472.36H529.836V336.478A3.731,3.731,0,0,0,529.365,334.643Z" transform="translate(-211.754 -157.399)" fill="#393f41"/><path d="M294.832,529.092V545.86a5.293,5.293,0,0,0,5.293,5.293h86.629v33.092H385.6a.688.688,0,0,0-.688.688v2.3a.688.688,0,0,0,.688.688h53.778a.688.688,0,0,0,.688-.688v-2.3a.687.687,0,0,0-.688-.688h-1.151V551.153h86.629a5.293,5.293,0,0,0,5.293-5.293V529.092Z" transform="translate(-211.663 -217.811)" fill="#393f41"/><circle cx="21.68" cy="21.68" r="21.68" transform="translate(176.307 219.796)" fill="#8dcbcb"/><path d="M489.046,228.954h-3.462c0-26.176-25.906-43.329-52.041-43.343a57.05,57.05,0,0,0-11.322,1.1c-4.2.838-8.552,1.842-12.832,3.151-16.876,5.173-32.526,15.173-32.526,39.091a54.423,54.423,0,0,0,1.759,13.767l-3.352.873a58.084,58.084,0,0,1-1.87-14.639c0-20.9,8.58-35.255,23.4-43.814,7.791-4.5,17.3-7.4,28.191-8.815a67.265,67.265,0,0,1,13.677-.416C468.721,178.069,489.046,201.115,489.046,228.954Z" transform="translate(-235.822 -109.152)" fill="#8dcbcb"/><path d="M539.8,246.646l-1.364-10.083a11.02,11.02,0,0,0-12.638-9.39l-2.167.3a4.558,4.558,0,0,0-3.906,5.124l3.151,23.226a4.554,4.554,0,0,0,3.67,3.857,4.257,4.257,0,0,0,.845.083,4.5,4.5,0,0,0,.609-.041l2.424-.326a10.936,10.936,0,0,0,7.438-4.453c.187-.263.367-.533.533-.81A11.6,11.6,0,0,0,539.8,246.646Z" transform="translate(-280.804 -124.926)" fill="#8dcbcb"/><path d="M522.227,228.275a4.453,4.453,0,0,0-1.614,1.33,4.535,4.535,0,0,0-.893,3.372l3.151,23.226a4.555,4.555,0,0,0,3.67,3.857Z" transform="translate(-280.804 -125.308)" fill="#fff"/><path d="M546.586,247.938l-1.364-10.083a10.879,10.879,0,0,0-3.462-6.62l3.137,23.109a4.276,4.276,0,0,0,.284,1.08A11.6,11.6,0,0,0,546.586,247.938Z" transform="translate(-287.594 -126.218)" fill="#3f3d56"/><ellipse cx="1.731" cy="4.847" rx="1.731" ry="4.847" transform="translate(245.19 119.608) rotate(-7.726)" fill="#3f3d56"/><ellipse cx="1.731" cy="4.847" rx="1.731" ry="4.847" transform="translate(243.112 107.144) rotate(-7.726)" fill="#3f3d56"/><ellipse cx="1.731" cy="4.847" rx="1.731" ry="4.847" transform="translate(256.27 111.991) rotate(-7.726)" fill="#3f3d56"/><path d="M443.933,185.611a57.05,57.05,0,0,0-11.322,1.1c-4.2.838-8.552,1.842-12.832,3.151-6.683-.325-11.6-2.057-12.59-4.723,7.791-4.5,17.3-7.4,28.191-8.815a67.265,67.265,0,0,1,13.677-.416,3.966,3.966,0,0,1,1.884,2.645C451.266,180.964,448.517,183.526,443.933,185.611Z" transform="translate(-246.213 -109.152)" fill="#8dcbcb"/><path d="M387.379,276.018l-5.332-22.167a4.171,4.171,0,0,0-3.379-3.151,4.67,4.67,0,0,0-.693-.055,4.178,4.178,0,0,0-.969.118l-2.064.5a10.321,10.321,0,0,0-7.611,12.437l2.389,9.944a10.973,10.973,0,0,0,3.7,5.969,9.731,9.731,0,0,0,.942.672,10.255,10.255,0,0,0,7.874,1.274l2.057-.5a4.044,4.044,0,0,0,1.5-.7,4.15,4.15,0,0,0,1.586-4.342Z" transform="translate(-233.869 -132.187)" fill="#8dcbcb"/><ellipse cx="1.731" cy="4.847" rx="1.731" ry="4.847" transform="translate(138.382 130.687) rotate(-13.53)" fill="#3f3d56"/><ellipse cx="1.731" cy="4.847" rx="1.731" ry="4.847" transform="translate(131.457 132.765) rotate(-13.53)" fill="#3f3d56"/><path d="M392.9,275.809l-5.332-22.167a4.523,4.523,0,0,0-3.663-3.407l7.278,30.276A4.509,4.509,0,0,0,392.9,275.809Z" transform="translate(-239.054 -132.061)" fill="#fff"/><path d="M368.535,262.4a4.484,4.484,0,0,0-.81-1.7,10.2,10.2,0,0,0-.395,6.087l2.389,9.944a10.973,10.973,0,0,0,3.7,5.969Z" transform="translate(-233.867 -135.28)" fill="#3f3d56"/></g></svg>